<svg class="line" id="svg2" xmlns="http://www.w3.org/2000/svg" viewBox="0 0 100 100"><title>logo</title><text/><path id="rect2879" d="M28.72,18.14H68.47V16.92l4.2,1.57-4.2,1.58V18.84H28.72Z"/><path id="path2882" d="M24.35,29.62,68.93,74.19l.87-.86,1.85,4.08-4.08-1.86.87-.86L23.86,30.11Z"/><path id="path2885" d="M83.8,29.25v44H85l-1.57,4.19L81.87,73.2H83.1V29.25Z"/><g id="text3724"><path id="path3732" d="M33.5,65.19a1.09,1.09,0,0,0-1.11,1.12,1.08,1.08,0,0,0,.32.78,1.1,1.1,0,0,0,.79.32,1.07,1.07,0,0,0,.79-.32,1.05,1.05,0,0,0,.33-.78,1.11,1.11,0,0,0-1.12-1.12Zm0-.76a1.79,1.79,0,0,1,.72.15,1.65,1.65,0,0,1,.6.41,1.7,1.7,0,0,1,.41.59,2,2,0,0,1,.13.73,1.79,1.79,0,0,1-.54,1.31,1.85,1.85,0,0,1-1.33.53,1.76,1.76,0,0,1-1.32-.53,1.78,1.78,0,0,1-.52-1.31A1.83,1.83,0,0,1,32.18,65a1.77,1.77,0,0,1,1.32-.55Z"/></g></svg>