<?xml version="1.0" standalone="no"?>
<!DOCTYPE svg PUBLIC "-//W3C//DTD SVG 20010904//EN"
 "http://www.w3.org/TR/2001/REC-SVG-20010904/DTD/svg10.dtd">
<svg version="1.0" xmlns="http://www.w3.org/2000/svg"
 width="700.000000pt" height="700.000000pt" viewBox="0 0 700.000000 700.000000"
 preserveAspectRatio="xMidYMid meet">
<metadata>
Created by potrace 1.11, written by Peter Selinger 2001-2013
</metadata>
<g transform="translate(0.000000,700.000000) scale(0.100000,-0.100000)"
fill="#000000" stroke="none">
<path d="M4790 5776 l0 -46 -1390 0 -1390 0 0 -25 0 -25 1389 0 1390 0 3 -44
3 -44 148 56 c99 37 144 58 135 63 -8 4 -68 28 -134 53 -65 24 -127 47 -136
51 -16 6 -18 1 -18 -39z"/>
<path d="M5817 4953 c-4 -3 -7 -696 -7 -1540 l0 -1533 -41 0 c-28 0 -39 -4
-37 -13 9 -36 104 -287 108 -287 6 0 111 279 110 293 0 4 -18 7 -40 7 l-40 0
0 1540 0 1540 -23 0 c-13 0 -27 -3 -30 -7z"/>
<path d="M1685 4910 c-19 -21 -18 -22 1540 -1580 l1559 -1559 -28 -30 -28 -29
28 -15 c54 -28 257 -117 259 -115 3 3 -119 275 -127 283 -2 3 -17 -9 -33 -25
l-29 -31 -1561 1561 -1561 1561 -19 -21z"/>
<path d="M2274 2471 c-32 -20 -64 -74 -64 -110 0 -72 58 -131 130 -131 63 0
110 32 130 88 13 37 13 47 0 84 -28 79 -124 113 -196 69z m125 -67 c27 -34 27
-64 1 -92 -21 -22 -73 -30 -96 -14 -14 9 -34 47 -34 65 0 31 40 67 75 67 24 0
39 -7 54 -26z"/>
</g>
</svg>
